<?xml version="1.0" standalone="no"?>
<!DOCTYPE svg PUBLIC "-//W3C//DTD SVG 20010904//EN"
 "http://www.w3.org/TR/2001/REC-SVG-20010904/DTD/svg10.dtd">
<svg version="1.0" xmlns="http://www.w3.org/2000/svg"
 width="512.000000pt" height="512.000000pt" viewBox="0 0 512.000000 512.000000"
 preserveAspectRatio="xMidYMid meet">

<g transform="translate(0.000000,512.000000) scale(0.100000,-0.100000)"
fill="#000000" stroke="none">
<path d="M2321 5110 c-497 -48 -990 -251 -1376 -565 -114 -92 -294 -274 -384
-387 -229 -287 -417 -675 -495 -1023 -49 -218 -60 -325 -60 -575 0 -250 11
-357 60 -575 79 -355 272 -749 509 -1040 92 -114 274 -294 387 -384 287 -229
675 -417 1023 -495 218 -49 325 -60 575 -60 250 0 357 11 575 60 261 58 603
204 828 353 389 259 688 599 893 1016 125 255 196 484 241 775 24 161 24 539
0 700 -45 291 -116 520 -241 775 -134 272 -283 480 -498 692 -211 209 -404
346 -673 478 -252 124 -486 197 -765 240 -126 19 -468 27 -599 15z m349 -664
l0 -144 53 -7 c396 -49 647 -201 782 -473 40 -81 71 -185 80 -269 3 -32 8 -73
11 -90 l5 -33 -195 0 -196 0 -5 28 c-31 165 -70 254 -148 338 -82 89 -192 141
-334 159 l-53 7 0 -544 0 -544 113 -33 c176 -52 352 -117 477 -179 100 -49
126 -68 201 -142 96 -94 143 -173 179 -302 30 -103 37 -290 16 -435 -64 -461
-330 -717 -831 -799 -49 -8 -105 -17 -122 -20 l-33 -5 0 -214 0 -215 -105 0
-105 0 0 214 0 215 -57 6 c-235 24 -440 90 -577 184 -174 120 -296 307 -340
522 -16 79 -36 256 -36 320 l0 39 198 -2 197 -3 2 -40 c4 -64 23 -184 40 -255
59 -243 238 -390 517 -425 l56 -7 0 606 0 606 -27 6 c-376 85 -565 174 -719
336 -112 119 -171 253 -194 444 -33 272 56 529 254 732 148 154 341 242 560
257 140 10 126 -7 126 160 l0 145 105 0 105 0 0 -144z"/>
<path d="M2316 3948 c-83 -15 -191 -72 -244 -126 -48 -49 -123 -179 -137 -237
-31 -131 -22 -266 25 -361 67 -137 247 -252 468 -299 l32 -7 0 521 0 521 -47
-1 c-27 -1 -70 -5 -97 -11z"/>
<path d="M2670 1873 l0 -586 63 6 c280 27 474 194 522 450 19 98 19 173 1 259
-46 214 -184 333 -503 431 l-83 25 0 -585z"/>
</g>
</svg>
